<svg width="230" height="640" xmlns="http://www.w3.org/2000/svg" id="manbody">

 <metadata id="metadata7">image/svg+xml</metadata>
 <g>
  <rect fill="none" id="canvas_background" height="642" width="232" y="-1" x="-1"/>
 </g>
 <g>
  <g stroke="null" id="layer1">
   <g stroke="null" transform="matrix(-0.6827601620573188,0,0,0.5821339616814909,-124.73861084849631,111.05249195585782) " id="g2470">
    <path stroke="#000000" fill="none" fill-rule="evenodd" stroke-width="5.841042" stroke-miterlimit="4" d="m-356.001868,388.779297c-12.15298,52.80175 -9.63099,68.70334 -13.45033,100.89646c-5.18668,24.31558 -6.7261,33.5927 -7.18861,55.91796c-0.4625,22.32526 -6.51907,27.06401 -6.13023,37.45958c0.18122,4.84462 7.21158,17.1262 9.70563,31.89024c2.84765,16.85726 2.09524,21.21926 1.54849,34.65462c-0.54675,13.43536 -3.76222,19.37102 -3.35453,29.98762c0.42211,10.99226 -5.83974,94.08448 -3.67318,106.39023c2.17817,12.37159 16.73286,32.48909 13.41089,44.61849c-3.20676,11.70867 -30.98452,19.61338 -30.98452,19.61338" id="path2472"/>
    <path stroke="#000000" fill="none" fill-rule="evenodd" stroke-width="5.841042" stroke-miterlimit="4" d="m-392.903968,839.493597c-1.08718,0.34487 -5.49097,10.14404 -10.7817,22.57249c-3.37229,7.92184 -7.17053,18.7704 -12.55156,24.63898c-5.38104,5.86858 -8.49907,4.50231 -16.50442,7.65477c-8.00535,3.15246 -14.78164,7.1728 -18.77854,7.49257c-3.9969,0.31977 -5.52874,-3.45335 -9.53713,-6.09528c-4.00839,-2.64193 -5.30695,-1.69887 -6.49643,-4.47244c-1.18949,-2.77358 2.3217,-3.393 1.73848,-6.62185c-0.58323,-3.22885 -2.2191,-2.52795 -2.46425,-5.75785c-0.24515,-3.2299 0.85671,-3.75569 1.48364,-7.16174c0.62693,-3.40605 1.07093,-1.89937 1.02408,-6.46244c-0.04507,-4.39007 -1.96213,-5.33145 3.78851,-11.07557c5.75064,-5.74412 12.12278,-5.99088 21.3569,-16.18665c9.23411,-10.19577 19.32956,-28.16786 19.32956,-28.16786" id="path2474"/>
    <path fill="#000000" fill-rule="evenodd" stroke-width="6.2" stroke-miterlimit="4" d="m-454.881648,857.631407c-2.57781,-0.0014 -4.34682,2.15398 -6.3125,3.5c-2.59062,2.57104 -3.54678,4.32999 -4.625,7.59375c-0.75841,2.71642 -1.38771,7.43981 -0.39023,10.12119c0.95995,3.58775 0.08579,8.45348 1.42618,11.92409c0.83224,2.15487 1.78805,4.25869 2.92979,6.2761c0.24071,0.39217 4.00052,-0.12491 4.47176,-0.04013c1.03559,-3.75633 4.61009,-5.9312 7.8125,-7.6875c4.04565,-2.55867 8.34939,-5.14273 10.9375,-9.3125c1.38556,-1.11141 2.66487,-4.25443 0.3125,-4.96875c-2.10532,0.08805 -3.3038,2.23247 -4.40625,3.78125c-1.24028,2.02635 -2.73936,4.03734 -5.03125,4.9375c-1.34605,0.69335 -3.27571,1.81269 -4.5625,0.4375c-0.68905,-2.10536 1.20744,-3.97371 2.46875,-5.46875c1.54446,-1.46413 3.25859,-2.84651 4.28125,-4.75c1.32907,-1.05973 2.42049,-4.52957 -0.25,-4.34375c-2.07752,0.33452 -3.34316,2.22998 -5.0625,3.25c-2.90426,2.42275 -5.13277,5.61075 -6.4375,9.15625c-0.52201,1.7342 -3.77235,3.05171 -3.6875,0.34375c-0.03496,-3.02561 2.60999,-5.00692 4.4375,-7.0625c2.71047,-3.03682 5.09845,-6.51721 6.21875,-10.46875c0.53793,-3.04125 -1.3622,-6.64608 -4.53125,-7.21875zm-2.5,8.1875c0.35148,-0.02588 0.7068,0.26557 0.84375,0.59375c0.21217,0.43234 0.06121,0.90434 -0.03125,1.34375c-0.31096,1.04332 -0.98829,1.93983 -1.65625,2.78125c-1.20323,1.33645 -2.61377,2.44214 -3.78125,3.8125c-1.71844,-0.26109 -1.93275,-1.64163 -1.375,-3.09375c0.96829,-1.82449 2.66601,-3.07592 4.3125,-4.25c0.48406,-0.3026 0.87523,-0.74132 1.34375,-1.0625c0.1063,-0.08417 0.22659,-0.11637 0.34375,-0.125z" id="path2476"/>
    <path stroke="#000000" fill="none" fill-rule="evenodd" stroke-width="5.841042" stroke-miterlimit="4" d="m-420.403968,819.493587l-1.13459,-30.69875l-27.81678,-124.94871l-4.67978,-40.77615l-0.08984,-21.96257l4.95368,-11.61736l-4.11105,-33.68876c-5.47314,-19.95974 -7.79607,-34.84489 -14.76677,-69.42491c-6.97069,-34.58003 -7.85225,-34.78711 -8.2179,-61.21681c-0.24223,-17.17475 5.79136,-58.76564 11.57828,-91.50814c2.94821,-16.68101 15.24998,-49.91438 20.9747,-67.97054c5.9968,-18.91436 2.80274,-33.38305 -0.75656,-72.30448c-3.55212,-38.84275 -2.9537,-66.47383 -2.9537,-66.47383" id="path2478"/>
    <path stroke="#000000" fill="none" fill-rule="evenodd" stroke-width="5.841042" stroke-miterlimit="4" d="m-456.399258,546.036617l8.5863,15.90991" id="path2480"/>
    <path stroke="#000000" fill="none" fill-rule="evenodd" stroke-width="5.841042" stroke-miterlimit="4" d="m-449.328188,590.988407l16.16244,12.37437" id="path2482"/>
    <path stroke="#000000" fill="none" fill-rule="evenodd" stroke-width="5.841042" stroke-miterlimit="4" d="m-449.833258,592.756177l9.84898,16.16244" id="path2484"/>
    <path stroke="#000000" fill="none" fill-rule="evenodd" stroke-width="5.841042" stroke-miterlimit="4" d="m-388.719038,609.171137c-0.72369,-4.4023 -1.47628,-7.58148 -0.51175,-12.92453c0.92036,-5.09831 3.28685,-9.30533 5.4679,-11.59173" id="path2486"/>
    <path stroke="#000000" fill="none" fill-rule="evenodd" stroke-width="5.841042" stroke-miterlimit="4" d="m-378.850668,783.299607c0.19615,8.60998 -0.72808,16.58418 -2.03015,24.69176c-1.00113,7.30983 -3.42944,12.30727 -3.09458,19.71652" id="path2488"/>
    <path stroke="#000000" fill="none" fill-rule="evenodd" stroke-width="5.841042" stroke-miterlimit="4" d="m-426.094678,613.211787c3.1055,0.39169 6.49813,-0.72677 8.45649,-3.23385c1.05329,-1.4639 1.44794,-4.6821 0.87744,-6.35834c-0.01761,-4.61699 -3.70972,-13.26136 0.7676,-16.67178" id="path2490"/>
   </g>
   <g stroke="null" transform="matrix(0.6827601620573188,0,0,0.5821339616814909,-270.4590490866227,111.05252487371081) " id="g11702">
    <path stroke="#000000" fill="none" fill-rule="evenodd" stroke-width="5.841042" stroke-miterlimit="4" d="m571.948928,388.779297c-12.15298,52.80175 -9.63099,68.70334 -13.45033,100.89646c-5.18668,24.31558 -6.7261,33.5927 -7.18861,55.91796c-0.4625,22.32526 -6.51907,27.06401 -6.13023,37.45958c0.18122,4.84462 7.21158,17.1262 9.70563,31.89024c2.84765,16.85726 2.09524,21.21926 1.54849,34.65462c-0.54675,13.43536 -3.76222,19.37102 -3.35453,29.98762c0.42211,10.99226 -5.83974,94.08448 -3.67318,106.39023c2.17817,12.37159 16.73286,32.48909 13.41089,44.61849c-3.20676,11.70867 -30.98452,19.61338 -30.98452,19.61338" id="path11704"/>
    <path stroke="#000000" fill="none" fill-rule="evenodd" stroke-width="5.841042" stroke-miterlimit="4" d="m535.046828,839.493597c-1.08718,0.34487 -5.49097,10.14404 -10.7817,22.57249c-3.37229,7.92184 -7.17053,18.7704 -12.55156,24.63898c-5.38104,5.86858 -8.49907,4.50231 -16.50442,7.65477c-8.00535,3.15246 -14.78164,7.1728 -18.77854,7.49257c-3.9969,0.31977 -5.52874,-3.45335 -9.53713,-6.09528c-4.00839,-2.64193 -5.30695,-1.69887 -6.49643,-4.47244c-1.18949,-2.77358 2.3217,-3.393 1.73848,-6.62185c-0.58323,-3.22885 -2.2191,-2.52795 -2.46425,-5.75785c-0.24515,-3.2299 0.85671,-3.75569 1.48364,-7.16174c0.62693,-3.40605 1.07093,-1.89937 1.02408,-6.46244c-0.04507,-4.39007 -1.96213,-5.33145 3.78851,-11.07557c5.75064,-5.74412 12.12278,-5.99088 21.3569,-16.18665c9.23411,-10.19577 19.32956,-28.16786 19.32956,-28.16786" id="path11706"/>
    <path fill="#000000" fill-rule="evenodd" stroke-width="6.2" stroke-miterlimit="4" d="m473.069148,857.631407c-2.57781,-0.0014 -4.34682,2.15398 -6.3125,3.5c-2.59062,2.57104 -3.54678,4.32999 -4.625,7.59375c-0.75841,2.71642 -1.38771,7.43981 -0.39023,10.12119c0.95995,3.58775 0.08579,8.45348 1.42618,11.92409c0.83224,2.15487 1.78805,4.25869 2.92979,6.2761c0.24071,0.39217 4.00052,-0.12491 4.47176,-0.04013c1.03559,-3.75633 4.61009,-5.9312 7.8125,-7.6875c4.04565,-2.55867 8.34939,-5.14273 10.9375,-9.3125c1.38556,-1.11141 2.66487,-4.25443 0.3125,-4.96875c-2.10532,0.08805 -3.3038,2.23247 -4.40625,3.78125c-1.24028,2.02635 -2.73936,4.03734 -5.03125,4.9375c-1.34605,0.69335 -3.27571,1.81269 -4.5625,0.4375c-0.68905,-2.10536 1.20744,-3.97371 2.46875,-5.46875c1.54446,-1.46413 3.25859,-2.84651 4.28125,-4.75c1.32907,-1.05973 2.42049,-4.52957 -0.25,-4.34375c-2.07752,0.33452 -3.34316,2.22998 -5.0625,3.25c-2.90426,2.42275 -5.13277,5.61075 -6.4375,9.15625c-0.52201,1.7342 -3.77235,3.05171 -3.6875,0.34375c-0.03496,-3.02561 2.60999,-5.00692 4.4375,-7.0625c2.71047,-3.03682 5.09845,-6.51721 6.21875,-10.46875c0.53793,-3.04125 -1.3622,-6.64608 -4.53125,-7.21875zm-2.5,8.1875c0.35148,-0.02588 0.7068,0.26557 0.84375,0.59375c0.21217,0.43234 0.06121,0.90434 -0.03125,1.34375c-0.31096,1.04332 -0.98829,1.93983 -1.65625,2.78125c-1.20323,1.33645 -2.61377,2.44214 -3.78125,3.8125c-1.71844,-0.26109 -1.93275,-1.64163 -1.375,-3.09375c0.96829,-1.82449 2.66601,-3.07592 4.3125,-4.25c0.48406,-0.3026 0.87523,-0.74132 1.34375,-1.0625c0.1063,-0.08417 0.22659,-0.11637 0.34375,-0.125z" id="path11708"/>
    <path stroke="#000000" fill="none" fill-rule="evenodd" stroke-width="5.841042" stroke-miterlimit="4" d="m507.546828,819.493587l-1.13459,-30.69875l-27.81678,-124.94871l-4.67978,-40.77615l-0.08984,-21.96257l4.95368,-11.61736l-4.11105,-33.68876c-5.47314,-19.95974 -7.79607,-34.84489 -14.76677,-69.42491c-6.97069,-34.58003 -7.85225,-34.78711 -8.2179,-61.21681c-0.24223,-17.17475 5.79136,-58.76564 11.57828,-91.50814c2.94821,-16.68101 15.24998,-49.91438 20.9747,-67.97054c5.9968,-18.91436 2.80274,-33.38305 -0.75656,-72.30448c-3.55212,-38.84275 -2.9537,-66.47383 -2.9537,-66.47383" id="path11710"/>
    <path stroke="#000000" fill="none" fill-rule="evenodd" stroke-width="5.841042" stroke-miterlimit="4" d="m471.551538,546.036617l8.5863,15.90991" id="path11712"/>
    <path stroke="#000000" fill="none" fill-rule="evenodd" stroke-width="5.841042" stroke-miterlimit="4" d="m478.622608,590.988407l16.16244,12.37437" id="path11714"/>
    <path stroke="#000000" fill="none" fill-rule="evenodd" stroke-width="5.841042" stroke-miterlimit="4" d="m478.117538,592.756177l9.84898,16.16244" id="path11716"/>
    <path stroke="#000000" fill="none" fill-rule="evenodd" stroke-width="5.841042" stroke-miterlimit="4" d="m539.231758,609.171137c-0.72369,-4.4023 -1.47628,-7.58148 -0.51175,-12.92453c0.92036,-5.09831 3.28685,-9.30533 5.4679,-11.59173" id="path11718"/>
    <path stroke="#000000" fill="none" fill-rule="evenodd" stroke-width="5.841042" stroke-miterlimit="4" d="m549.100128,783.299607c0.19615,8.60998 -0.72808,16.58418 -2.03015,24.69176c-1.00113,7.30983 -3.42944,12.30727 -3.09458,19.71652" id="path11720"/>
    <path stroke="#000000" fill="none" fill-rule="evenodd" stroke-width="5.841042" stroke-miterlimit="4" d="m501.856118,613.211787c3.1055,0.39169 6.49813,-0.72677 8.45649,-3.23385c1.05329,-1.4639 1.44794,-4.6821 0.87744,-6.35834c-0.01761,-4.61699 -3.70972,-13.26136 0.7676,-16.67178" id="path11722"/>
   </g>
   <g stroke="null" transform="matrix(0.6827601620573188,0,0,0.5821339616814909,-268.4484142018696,115.26791929886849) " id="g8718">
    <path fill="#ffffff" fill-rule="evenodd" stroke-width="6.2" stroke-miterlimit="4" stroke-dashoffset="0" d="m471.832538,354.850747c-3.57143,95.44571 -4.24571,116.78571 -23.21428,97.49999c-4.28546,-4.3571 -13.21429,-21.69714 -13.21429,-75.71428c0,-54.01714 19.96,-124.28571 26.07143,-124.28571c6.11143,0 10.35714,48.48286 10.35714,102.5z" id="path7721"/>
    <g stroke="null" id="g7674" transform="matrix(-1,0,0,1,192.60457,11.911172) ">
     <path stroke="#000000" fill="none" fill-rule="evenodd" stroke-width="5.841042" stroke-miterlimit="4" id="path7676" d="m-285.683478,-8.032053c0,0 17.99226,8.985 24.06686,14.79c6.34361,6.06206 17.54034,24.50182 20.90297,40.26115c3.38619,15.86977 2.31664,48.08709 6.41172,85.33333c4.09508,37.24624 7.28124,33.98757 9.96859,63.65162c2.68735,29.66406 1.90573,42.32319 -0.73441,65.10613c-1.46041,12.60254 -8.74462,27.31825 -13.32708,45.86141c-3.68272,14.9023 -4.72614,33.98536 -6.37746,37.07042"/>
     <path stroke="#000000" fill="none" fill-rule="evenodd" stroke-width="5.841042" stroke-miterlimit="4" id="path7678" d="m-248.159898,337.674717c1.71767,6.5172 4.04708,9.12361 6.16317,17.02622c2.11609,7.90261 3.39953,10.26467 4.252,21.91158c0.85247,11.64691 0.03698,15.42564 0.27262,25.45161c0.23565,10.02597 1.04921,8.11327 0.66997,14.65227c-0.37924,6.539 -0.50327,8.80577 -2.18694,11.50373c-1.68367,2.69796 -1.53112,-3.39254 -4.54774,-0.7119c-3.01662,2.68064 -4.69833,7.07545 -7.51873,11.43446c-2.8204,4.35902 -1.65485,3.77742 -3.76288,6.0016c-2.10803,2.22418 -1.93443,0.62535 -4.66925,2.8951c-2.73483,2.26975 -3.1933,6.00441 -6.27005,6.18391c-3.07675,0.1795 -4.4044,-3.9388 -6.03697,-5.46592c-1.63257,-1.52712 -5.30182,0.64297 -5.83411,-4.72851c-0.53229,-5.37148 6.95123,-18.86665 6.29956,-26.7688c-0.38976,-4.7263 0.03981,-9.485 -1.20103,-13.03044c-0.99511,-2.84331 -3.69537,-5.37576 -4.02586,-9.52805c-0.46898,-5.89232 0.58083,-12.47038 0.13359,-17.9233c-0.17929,-2.18596 -1.28269,16.83673 -5.3561,29.18404c-3.48144,10.55294 -7.09736,13.55028 -9.96692,13.68347c-2.89045,0.13415 -3.79234,-15.72012 -2.50927,-23.74359c1.28307,-8.02347 1.69113,-10.16133 2.53768,-14.91465c0.84654,-4.75333 0.99538,-15.94376 2.37311,-23.36546c1.37773,-7.42169 11.21142,-21.29422 11.04546,-21.57642"/>
     <path fill="#000000" fill-rule="evenodd" stroke-width="6.2" stroke-miterlimit="4" id="path7680" d="m-255.694148,392.412657c-1.05886,0.01368 -2.18563,0.59829 -2.84375,1.75c-2.67266,2.53698 -2.55566,6.42401 -2.5,9.8125c-0.0927,3.59879 0.92256,7.17354 0.28125,10.75c-2.16698,6.92686 -4.382,13.91683 -7.75,20.375c-2.28844,3.0144 -3.29189,6.756 -5.5625,9.78125c0.82277,0.44365 1.59637,0.99264 2.3125,1.59375c2.61533,1.23723 2.86607,6.35985 6.40625,5.34375c3.40832,-2.90093 7.85944,-4.54404 10.625,-8.1875c2.3349,-4.27988 4.75145,-8.55357 7.75,-12.40625c2.50422,-3.35453 7.27702,-4.87361 8.5,-9.15625c0.36672,-3.5544 -0.05293,-7.14734 -0.0625,-10.71875c-0.28594,-3.05786 0.42625,-6.1981 -0.40625,-9.1875c-0.84073,-3.67594 -5.11151,-3.21197 -7.46875,-5.40625c-2.56488,-2.2089 -4.42371,0.7037 -5.5,2.78125c-2.66902,1.80824 -0.90587,-2.79536 -1.28125,-4.25c0.09729,-1.96902 -1.13861,-2.89259 -2.5,-2.875zm7.75,11.9375c0.87841,0.31253 0.86876,1.39029 0.9375,2.15625c0.06071,1.48111 0.25336,2.95813 0.34375,4.4375c0.16317,2.04191 -0.15666,4.06951 -0.375,6.09375c0.05809,0.69993 -1.0207,1.16877 -1.4375,0.5625c-0.53478,-1.463 -0.65517,-3.0295 -0.84375,-4.5625c-0.10554,-1.61753 -0.76861,-3.13365 -0.875,-4.75c-0.16155,-1.63012 0.89074,-3.14356 2.25,-3.9375zm6.53125,5.25c1.25689,-0.06706 1.54567,3.89106 1.40625,6.46875c0.00999,1.38817 -0.51731,2.70259 -0.9375,4c-0.02367,0.57898 -0.79725,1.13257 -1.28125,0.65625c-0.24611,-0.89189 -0.42203,-1.7729 -0.5625,-2.6875c-0.09198,-1.18082 -0.37812,-2.37775 -0.1875,-3.5625c0.52239,-1.71244 0.3056,-4.80795 1.5625,-4.875zm-14.71875,5.875c1.70474,-0.05006 0.85503,2.82478 1.125,3.9375c0.31713,3.42172 -0.30892,6.92697 -1.78125,10.03125c-1.43206,3.48755 -4.33303,6.07774 -5.875,9.5c-0.98187,1.94875 -1.02362,4.18142 -0.9375,6.3125c-0.00921,1.498 0.21787,3.48196 -1.34375,4.3125c-1.44041,0.62916 -3.11081,-0.63767 -2.96875,-2.1875c0.30727,-3.40672 2.33725,-6.28315 3.53125,-9.40625c0.67691,-3.12039 2.20645,-6.00576 4,-8.625c1.89563,-2.14762 2.66964,-5.11207 2.375,-7.9375c-0.4091,-2.08794 -0.1235,-4.73556 1.875,-5.9375zm5.5625,15.25c0.15991,-0.00497 0.32027,0.03193 0.4375,0.15625c0.29978,0.50737 0.37745,1.17473 0.125,1.71875c-0.36657,0.60003 -0.99792,0.96863 -1.375,1.5625c-0.25456,0.55342 -0.57663,1.12509 -1.125,1.4375c-0.24959,0.24972 -0.77515,0.23651 -0.875,-0.15625c-0.01459,-0.71823 0.38045,-1.34485 0.6875,-1.96875c0.42487,-0.93491 0.77136,-2.3192 1.6875,-2.625c0.13754,-0.06477 0.27759,-0.12003 0.4375,-0.125z"/>
     <path stroke="#000000" fill="none" fill-rule="evenodd" stroke-width="5.841042" stroke-miterlimit="4" id="path7682" d="m-292.903968,63.065017c0,0 6.77033,32.84938 6.80456,38.21219c0.03414,5.34863 1.20902,36.72301 2.11538,41.71135c0.89277,4.91353 4.63294,15.93266 9.27796,27.29106c4.64501,11.3584 9.3021,18.14254 9.3021,18.14254"/>
     <path stroke="#000000" fill="none" fill-rule="evenodd" stroke-width="5.841042" stroke-miterlimit="4" id="path7684" d="m-272.189688,175.565017c0,0 0.52625,26.32744 0.00887,56.77344c-0.129,7.59105 -0.34507,15.54913 -0.68363,23.58538c-1.69642,40.26785 -6.46809,82.49832 -6.46809,82.49832"/>
    </g>
   </g>
   <g stroke="null" transform="matrix(-0.6827601620573188,0,0,0.5821339616814909,424.0022726700071,79.39748296674213) " id="g8709">
    <path fill="#ffffff" fill-rule="evenodd" stroke-width="6.2" stroke-miterlimit="4" stroke-dashoffset="0" d="m350.488552,418.255757c-3.57143,95.44571 -4.24572,115 -23.21429,95.71428c-4.28546,-4.3571 -13.21429,-21.69714 -13.21429,-75.71428c0,-54.01714 19.96,-124.28571 26.07143,-124.28571c6.11143,0 10.35715,50.26857 10.35715,104.28571z" id="path8695"/>
    <g stroke="null" id="g8697" transform="matrix(-1,0,0,1,999.21137,73.530476) ">
     <path stroke="#000000" fill="none" fill-rule="evenodd" stroke-width="5.841042" stroke-miterlimit="4" id="path8699" d="m642.267318,-8.032053c0,0 17.99226,8.985 24.06686,14.79c6.34361,6.06206 17.54034,24.50182 20.90297,40.26115c3.38619,15.86977 2.31664,48.08709 6.41172,85.33333c4.09508,37.24624 7.28124,33.98757 9.96859,63.65162c2.68735,29.66406 1.90573,42.32319 -0.73441,65.10613c-1.46041,12.60254 -8.74462,27.31825 -13.32708,45.86141c-3.68272,14.9023 -4.72614,33.98536 -6.37746,37.07042"/>
     <path stroke="#000000" fill="none" fill-rule="evenodd" stroke-width="5.841042" stroke-miterlimit="4" id="path8701" d="m679.790898,337.674717c1.71767,6.5172 4.04708,9.12361 6.16317,17.02622c2.11609,7.90261 3.39953,10.26467 4.252,21.91158c0.85247,11.64691 0.03698,15.42564 0.27262,25.45161c0.23565,10.02597 1.04921,8.11327 0.66997,14.65227c-0.37924,6.539 -0.50327,8.80577 -2.18694,11.50373c-1.68367,2.69796 -1.53112,-3.39254 -4.54774,-0.7119c-3.01662,2.68064 -4.69833,7.07545 -7.51873,11.43446c-2.8204,4.35902 -1.65485,3.77742 -3.76288,6.0016c-2.10803,2.22418 -1.93443,0.62535 -4.66925,2.8951c-2.73483,2.26975 -3.1933,6.00441 -6.27005,6.18391c-3.07675,0.1795 -4.4044,-3.9388 -6.03697,-5.46592c-1.63257,-1.52712 -5.30182,0.64297 -5.83411,-4.72851c-0.53229,-5.37148 6.95123,-18.86665 6.29956,-26.7688c-0.38976,-4.7263 0.03981,-9.485 -1.20103,-13.03044c-0.99511,-2.84331 -3.69537,-5.37576 -4.02586,-9.52805c-0.46898,-5.89232 0.58083,-12.47038 0.13359,-17.9233c-0.17929,-2.18596 -1.28269,16.83673 -5.3561,29.18404c-3.48144,10.55294 -7.09736,13.55028 -9.96692,13.68347c-2.89045,0.13415 -3.79234,-15.72012 -2.50927,-23.74359c1.28307,-8.02347 1.69113,-10.16133 2.53768,-14.91465c0.84654,-4.75333 0.99538,-15.94376 2.37311,-23.36546c1.37773,-7.42169 11.21142,-21.29422 11.04546,-21.57642"/>
     <path fill="#000000" fill-rule="evenodd" stroke-width="6.2" stroke-miterlimit="4" id="path8703" d="m672.256648,392.412657c-1.05886,0.01368 -2.18563,0.59829 -2.84375,1.75c-2.67266,2.53698 -2.55566,6.42401 -2.5,9.8125c-0.0927,3.59879 0.92256,7.17354 0.28125,10.75c-2.16698,6.92686 -4.382,13.91683 -7.75,20.375c-2.28844,3.0144 -3.29189,6.756 -5.5625,9.78125c0.82277,0.44365 1.59637,0.99264 2.3125,1.59375c2.61533,1.23723 2.86607,6.35985 6.40625,5.34375c3.40832,-2.90093 7.85944,-4.54404 10.625,-8.1875c2.3349,-4.27988 4.75145,-8.55357 7.75,-12.40625c2.50422,-3.35453 7.27702,-4.87361 8.5,-9.15625c0.36672,-3.5544 -0.05293,-7.14734 -0.0625,-10.71875c-0.28594,-3.05786 0.42625,-6.1981 -0.40625,-9.1875c-0.84073,-3.67594 -5.11151,-3.21197 -7.46875,-5.40625c-2.56488,-2.2089 -4.42371,0.7037 -5.5,2.78125c-2.66902,1.80824 -0.90587,-2.79536 -1.28125,-4.25c0.09729,-1.96902 -1.13861,-2.89259 -2.5,-2.875zm7.75,11.9375c0.87841,0.31253 0.86876,1.39029 0.9375,2.15625c0.06071,1.48111 0.25336,2.95813 0.34375,4.4375c0.16317,2.04191 -0.15666,4.06951 -0.375,6.09375c0.05809,0.69993 -1.0207,1.16877 -1.4375,0.5625c-0.53478,-1.463 -0.65517,-3.0295 -0.84375,-4.5625c-0.10554,-1.61753 -0.76861,-3.13365 -0.875,-4.75c-0.16155,-1.63012 0.89074,-3.14356 2.25,-3.9375zm6.53125,5.25c1.25689,-0.06706 1.54567,3.89106 1.40625,6.46875c0.00999,1.38817 -0.51731,2.70259 -0.9375,4c-0.02367,0.57898 -0.79725,1.13257 -1.28125,0.65625c-0.24611,-0.89189 -0.42203,-1.7729 -0.5625,-2.6875c-0.09198,-1.18082 -0.37812,-2.37775 -0.1875,-3.5625c0.52239,-1.71244 0.3056,-4.80795 1.5625,-4.875zm-14.71875,5.875c1.70474,-0.05006 0.85503,2.82478 1.125,3.9375c0.31713,3.42172 -0.30892,6.92697 -1.78125,10.03125c-1.43206,3.48755 -4.33303,6.07774 -5.875,9.5c-0.98187,1.94875 -1.02362,4.18142 -0.9375,6.3125c-0.00921,1.498 0.21787,3.48196 -1.34375,4.3125c-1.44041,0.62916 -3.11081,-0.63767 -2.96875,-2.1875c0.30727,-3.40672 2.33725,-6.28315 3.53125,-9.40625c0.67691,-3.12039 2.20645,-6.00576 4,-8.625c1.89563,-2.14762 2.66964,-5.11207 2.375,-7.9375c-0.4091,-2.08794 -0.1235,-4.73556 1.875,-5.9375zm5.5625,15.25c0.15991,-0.00497 0.32027,0.03193 0.4375,0.15625c0.29978,0.50737 0.37745,1.17473 0.125,1.71875c-0.36657,0.60003 -0.99792,0.96863 -1.375,1.5625c-0.25456,0.55342 -0.57663,1.12509 -1.125,1.4375c-0.24959,0.24972 -0.77515,0.23651 -0.875,-0.15625c-0.01459,-0.71823 0.38045,-1.34485 0.6875,-1.96875c0.42487,-0.93491 0.77136,-2.3192 1.6875,-2.625c0.13754,-0.06477 0.27759,-0.12003 0.4375,-0.125z"/>
     <path stroke="#000000" fill="none" fill-rule="evenodd" stroke-width="5.841042" stroke-miterlimit="4" id="path8705" d="m635.046828,63.065017c0,0 6.77033,32.84938 6.80456,38.21219c0.03414,5.34863 1.20902,36.72301 2.11538,41.71135c0.89277,4.91353 4.63294,15.93266 9.27796,27.29106c4.64501,11.3584 9.3021,18.14254 9.3021,18.14254"/>
     <path stroke="#000000" fill="none" fill-rule="evenodd" stroke-width="5.841042" stroke-miterlimit="4" id="path8707" d="m655.761108,175.565017c0,0 0.52625,26.32744 0.00887,56.77344c-0.129,7.59105 -0.34507,15.54913 -0.68363,23.58538c-1.69642,40.26785 -6.46809,82.49832 -6.46809,82.49832"/>
    </g>
   </g>
   <path stroke="#000000" fill="#ffffff" fill-rule="evenodd" stroke-width="6.2" stroke-miterlimit="4" id="path11863" d="m101.93447,8.544782c-15.340509,3.37126 -19.778067,10.676736 -26.17666,18.052101c-6.398579,7.37536 -4.09288,15.432773 -7.419097,25.046662c-3.326224,9.613895 -0.250929,18.899533 5.87929,29.571792c2.249778,3.916681 2.153399,11.56475 2.111592,16.120959c-0.072112,7.858644 -1.335393,14.964824 -5.536528,21.85041c-1.884756,9.063766 8.864841,16.232945 18.660232,16.573267c18.129587,2.690881 36.571143,0.360407 54.822127,1.122932c11.042552,-0.804787 23.901136,-3.672272 29.482307,-12.662061c4.860032,-8.508689 1.749643,-16.775256 -1.19702,-28.371568c-2.859299,-11.25254 1.863119,-35.954306 -1.440188,-46.237261c-3.503337,-10.905575 -6.763409,-16.770686 -15.581903,-26.667115c-8.818475,-9.896423 -38.263643,-17.771378 -53.604152,-14.400118z"/>
   <path fill="#ffffff" fill-rule="evenodd" stroke-width="6.2" stroke-miterlimit="4" stroke-dashoffset="0" d="m184.156016,123.913035a62.30187,17.256116 0 1 1 -124.60374,0a62.30187,17.256116 0 1 1 124.60374,0z" id="path13840"/>
   <path stroke="#000000" fill="none" fill-rule="evenodd" stroke-width="6.2" stroke-miterlimit="4" id="path15054" d="m56.421128,118.442406c3.565617,-2.033111 10.615153,-2.812984 18.015089,-5.087043c6.786261,-2.085461 18.239899,-6.200533 22.141649,-11.102232c1.534709,-3.610244 -2.088778,-14.005729 -2.164427,-17.773479"/>
   <path stroke="#000000" fill="none" fill-rule="evenodd" stroke-width="6.2" stroke-miterlimit="4" id="path15056" d="m184.308124,119.517662c-7.319439,-3.578231 -20.185328,-8.473664 -29.056747,-13.255932c-4.122484,-2.010249 -9.390972,-9.458221 -10.152987,-11.992972c-1.534689,-3.610238 -2.171101,-8.790795 -2.095459,-12.558545"/>
   <path stroke="#000000" fill="none" fill-rule="evenodd" stroke-width="6.2" stroke-miterlimit="4" id="path15058" d="m148.3741,55.861535c-0.068286,7.994194 -2.91407,17.297959 -5.434555,25.015972c-3.858103,5.786229 -10.745289,11.040604 -16.610426,14.914832c-5.614896,3.70892 -10.820699,4.458339 -17.378902,3.006453c-4.971032,-1.100515 -8.190107,-4.153246 -10.453709,-7.92533c-4.789148,-5.954209 -6.210008,-10.419214 -9.085376,-17.139448c-2.533802,-5.921966 -4.12031,-18.787788 -4.604113,-21.842515c-0.46585,-2.941446 3.905891,-21.622481 12.618348,-23.978571c8.466332,-2.289513 6.141259,-7.365891 11.963849,-7.549232c3.347423,-0.105408 1.429624,1.066478 4.781259,1.357077c2.47826,0.214877 7.852618,0.983481 9.794677,0.77792c1.942079,-0.205561 10.91511,-1.894839 12.080823,-0.882473c0.85665,0.743949 7.444862,2.469613 9.009631,6.347374c0.636437,1.577171 1.34653,5.259779 3.615835,7.498083c3.310206,3.264963 -2.118555,17.626056 -0.297341,20.63065"/>
   <path stroke="#000000" fill="none" fill-rule="evenodd" stroke-width="6.2" stroke-miterlimit="4" id="path15060" d="m144.316893,91.864976c-0.60122,4.817111 -0.626368,9.850086 1.487654,14.424461"/>
   <path stroke="#000000" fill="none" fill-rule="evenodd" stroke-width="6.2" stroke-miterlimit="4" id="path10703" d="m171.232323,161.751739c9.727375,11.63132 8.605675,26.808996 -1.662125,33.729125c-10.883539,7.335107 -29.914413,6.740325 -40.035006,-6.493573"/>
   <path fill="#000000" fill-rule="evenodd" stroke-width="6.2" stroke-miterlimit="4" stroke-dashoffset="0" d="m164.744471,185.22162a2.900083,4.487427 0 1 1 -5.800167,-2.656008a2.900083,4.487427 0 1 1 5.800167,2.656008z" id="path10720"/>
   <path stroke="#000000" fill="none" fill-rule="evenodd" stroke-width="6.2" stroke-miterlimit="4" id="path10726" d="m66.439703,162.288805c-9.727368,11.631315 -8.605675,26.808996 1.662125,33.729125c10.883533,7.335107 29.914394,6.740325 40.034999,-6.493573"/>
   <path fill="#000000" fill-rule="evenodd" stroke-width="6.2" stroke-miterlimit="4" stroke-dashoffset="0" d="m72.927548,185.758685a-2.900083,4.487427 0 1 1 5.800167,-2.656008a-2.900083,4.487427 0 1 1 -5.800167,2.656008z" id="path10728"/>
   <path fill="#000000" fill-rule="evenodd" stroke-width="6.2" stroke-miterlimit="4" stroke-dashoffset="0" d="m121.965196,271.935373a4.138155,3.528267 0 1 1 -8.276303,0a4.138155,3.528267 0 1 1 8.276303,0z" id="path11746"/>
   <path stroke="#000000" fill="none" fill-rule="evenodd" stroke-width="4.8" stroke-miterlimit="4" id="path15067" d="m110.043708,58.528276c0.031867,0.027201 0.063747,0.054397 0.095626,0.081592c0.610544,0.520958 0.618601,1.659987 0.76503,2.284718c0.085891,0.366403 0.286885,0.609803 0.286885,1.142365c0,0.462375 0,0.924767 0,1.387147c0,0.43518 0,0.870364 0,1.305555c0,0.43518 0,0.870364 0,1.305549c0,0.407984 0,0.815973 0,1.223952c0,0.416932 -0.005761,0.835669 -0.095626,1.142359c-0.11563,0.39468 -0.095626,0.758746 -0.095626,1.223957c0,0.393506 -0.188263,0.803168 -0.286885,1.223957c-0.048553,0.207147 -0.058815,0.363901 -0.095633,0.489582"/>
   <path stroke="#000000" fill="none" fill-rule="evenodd" stroke-width="4.8" stroke-miterlimit="4" id="path15069" d="m104.879738,71.33901c-1.055889,1.4666 -2.577886,4.068317 0.132656,4.96906c2.280057,0.542003 4.729639,0.123217 7.015199,0.762054c2.737124,0.596674 4.86036,-1.256902 7.698942,-0.889698c2.838582,0.36721 3.968641,-3.442055 2.270785,-5.249405"/>
   <path stroke="#000000" fill="none" fill-rule="evenodd" stroke-width="4.8" stroke-miterlimit="4" id="path15071" d="m120.849772,55.101198c-0.002868,-0.004899 1.464873,-0.16319 1.912572,-0.16319c0.639993,0 1.423837,-0.058939 1.912591,-0.163196c0.761172,-0.162367 1.567219,-0.007928 2.29509,-0.163196c0.771196,-0.164507 1.427592,-0.244794 2.19947,-0.244794c0.510011,0 1.020036,0 1.530053,0c0.535783,0 0.88464,0.086717 1.243181,0.163196c0.491236,0.104788 0.772379,0.062763 1.243174,0.163196c0.42131,0.089871 0.69803,0.297797 0.956289,0.407984"/>
   <path stroke="#000000" fill="#ffffff" fill-rule="evenodd" stroke-width="6.2" stroke-miterlimit="4" id="path11871" d="m105.971629,8.336873c-5.519604,4.679783 -10.296034,12.777542 -6.725144,18.144705c3.698415,5.558821 13.324518,8.539818 21.229399,10.022082c7.380723,1.383987 5.673531,7.818616 9.163995,12.900501c3.857338,5.616022 11.695739,4.347647 15.571113,13.512329c2.421265,5.725934 -2.735947,14.070681 -2.310708,22.987919c0.255385,5.355307 5.083917,14.038307 8.999221,17.590346c3.91531,3.55205 18.370948,13.545038 21.841717,11.059236c3.891359,-2.787028 -2.049973,-18.258463 -1.728791,-23.212079c-0.014776,-9.670195 3.318128,-26.678718 -0.500907,-41.658064c-3.238011,-12.700443 -12.813086,-23.974725 -19.12888,-29.705241c-9.185458,-7.72356 -39.899218,-15.430973 -46.411016,-11.641733z"/>
   <path stroke="#000000" fill="none" fill-rule="evenodd" stroke-width="4.8" stroke-miterlimit="4" id="path15074" d="m108.609274,56.814737c0.122285,0.026087 -0.742332,-0.86264 -1.051922,-1.060767c-0.300613,-0.192372 -0.487442,-0.534345 -0.956289,-0.734364c-0.492863,-0.210279 -0.977238,-0.371659 -1.530053,-0.489587c-0.388009,-0.082766 -0.83601,-0.081598 -1.338807,-0.081598c-0.478151,0 -0.956289,0 -1.43444,0c-0.733144,0 -1.466307,0 -2.19947,0c-0.541891,0 -1.083782,0 -1.625686,0c-0.478151,0 -0.956289,0 -1.43444,0c-0.478132,0 -0.956283,0 -1.434421,0c-0.31782,0 -0.393385,-0.022713 -0.66941,-0.081598"/>
   <path fill="#000000" fill-rule="evenodd" stroke-width="1px" id="path15076" d="m101.34148,83.170575c2.944921,-0.585855 5.951382,-2.374315 8.460223,-2.270086c2.508828,0.104229 4.033506,1.009212 6.248144,0.299421c2.214638,-0.709786 4.313119,0.782573 6.681253,0.352841c3.415574,0.254115 1.587016,4.080431 -1.21069,3.823398c-2.625165,-0.235033 -5.540141,0.004252 -7.822031,0.46638c-2.597008,0.525945 -5.396245,-0.966177 -8.023455,0.104514c-1.836274,0.62686 -6.781593,-0.753994 -4.333444,-2.776467z"/>
   <path stroke="#000000" fill="none" fill-rule="evenodd" stroke-width="4.8" stroke-miterlimit="4" id="path15078" d="m110.234961,88.474382c0.245586,0.064206 0.934665,0.552724 1.147548,0.734375c0.144333,0.123157 0.318772,0.217598 0.478145,0.326391c0.317923,0.217011 0.682855,0.227265 1.147542,0.326391c0.412462,0.087978 1.066981,-0.023613 1.338814,-0.081598c0.470345,-0.100339 0.810612,-0.070916 1.243181,-0.163196c0.380872,-0.081252 0.676342,-0.288552 0.956289,-0.407989c0.057014,-0.024321 0.1275,0 0.191246,0c0.107335,0 0.165044,-0.140812 0.191272,-0.16319"/>
   <path stroke="#000000" fill="#000000" fill-rule="evenodd" stroke-width="1px" id="path15080" d="m120.631238,61.430615c0.011973,-1.322442 1.241445,-2.334304 2.47338,-2.985194c0.676605,-0.403436 1.460385,-0.674267 2.289804,-0.714575c1.524408,-0.138875 3.051973,0.06487 4.576915,0.077582c1.697554,0.192465 3.358264,0.601689 4.957684,1.111054c0.904779,0.474533 0.973508,1.606331 0.385804,2.299844c-0.407267,0.530543 -1.098995,0.833957 -1.763995,1.069556c-1.264586,0.322337 -2.581024,-0.428387 -3.821587,0.032095c-0.499338,0.198292 -0.854786,0.616678 -1.434922,0.677795c-1.168651,0.226996 -2.303217,-0.218909 -3.374493,-0.555928c-1.247952,-0.29208 -2.423541,0.652948 -3.67348,0.299969c-0.609971,-0.160584 -1.001614,-0.835521 -0.615109,-1.312199z"/>
   <path stroke="#000000" fill="#000000" fill-rule="evenodd" stroke-width="1px" id="path15082" d="m108.936598,59.987162c-2.68733,-3.472576 -8.098975,-1.187506 -11.955522,-2.439597c-3.91162,-0.699022 -6.291784,3.866986 -1.406714,4.323244c3.473752,2.058567 7.2622,0.837529 10.940804,0.638442c2.5248,0.486625 4.003304,-0.385068 2.421432,-2.522089z"/>
   <path stroke="#000000" fill="none" fill-rule="evenodd" stroke-width="6.2" stroke-miterlimit="4" id="path12861" d="m128.684618,117.060679c0.93127,0.197677 3.571475,0.588039 5.517527,0.588039c1.680212,0 3.942844,0.294028 5.862385,0.294028c1.789483,0 3.578149,-0.294028 5.51754,-0.294028c1.881264,0 3.813158,-0.592274 5.172682,-0.882067c1.890247,-0.402909 2.887803,-0.64305 4.13816,-1.176084c1.719017,-0.732839 2.594282,-1.252985 3.793302,-1.764134c1.253642,-0.534438 1.903988,-1.546744 3.103612,-2.05815"/>
   <path stroke="#000000" fill="none" fill-rule="evenodd" stroke-width="6.2" stroke-miterlimit="4" id="path12863" d="m103.510858,117.20769c-0.805172,0.197683 -3.087852,0.588039 -4.770366,0.588039c-1.452682,0 -3.408919,0.294028 -5.06853,0.294028c-1.547151,0 -3.093607,-0.294028 -4.77036,-0.294028c-1.626529,0 -3.296806,-0.592274 -4.472222,-0.882067c-1.63427,-0.402909 -2.496753,-0.64305 -3.577783,-1.176084c-1.486246,-0.732839 -2.242975,-1.252985 -3.279632,-1.764134c-1.083872,-0.534438 -1.646146,-1.546744 -2.683318,-2.058156"/>
   <path stroke="#000000" fill="none" fill-rule="evenodd" stroke-width="6.2" stroke-miterlimit="4" id="path12865" d="m107.304167,121.17698c3.263384,1.319759 6.219994,0.175172 8.145438,-2.170993c0.747534,-0.912988 2.003086,-1.159773 3.234474,-1.063241"/>
   <path stroke="#000000" fill="none" fill-rule="evenodd" stroke-width="6.2" stroke-miterlimit="4" id="path13844" d="m164.203742,222.02655c-2.605168,3.527027 -3.240017,7.75058 -4.138154,11.76088"/>
   <path stroke="#000000" fill="none" fill-rule="evenodd" stroke-width="6.2" stroke-miterlimit="4" id="path13867" d="m118.684079,345.515813c2.175846,-8.420787 -4.815569,-15.598783 -8.276314,-22.933715"/>
   <path stroke="#000000" fill="none" fill-rule="evenodd" stroke-width="6.2" stroke-miterlimit="4" id="path13887" d="m119.579618,345.074774c-2.175846,-8.420793 4.815569,-15.598789 8.276314,-22.933715"/>
   <path stroke="#000000" fill="none" fill-rule="evenodd" stroke-width="6.2" stroke-miterlimit="4" id="path13889" d="m151.3835,297.149167c3.641787,-2.182827 5.974614,-5.816853 6.268186,-9.555713"/>
   <path stroke="#000000" fill="none" fill-rule="evenodd" stroke-width="6.2" stroke-miterlimit="4" id="path13905" d="m87.333567,295.45855c-3.641774,-2.182827 -5.974594,-5.816848 -6.268167,-9.555713"/>
  </g>
 </g>
</svg>