<svg width="230.00000000000003" height="640" xmlns="http://www.w3.org/2000/svg">

 <metadata id="metadata7">image/svg+xml</metadata>
 <g>
  <title>background</title>
  <rect fill="none" id="canvas_background" height="642" width="232" y="-1" x="-1"/>
 </g>
 <g>
  <title>Layer 1</title>
  <g stroke="null" id="layer1">
   <g stroke="null" transform="matrix(-0.5778306404663153,0,0,0.5181573647551005,-870.2682412236586,318.0427239777045) " id="g10248">
    <path stroke="#000000" fill="none" fill-rule="evenodd" stroke-width="10" stroke-miterlimit="4" d="m-1601.733618,-201.858656c-4.78812,11.44321 -10.58638,23.3915 -9.81865,37.36009l7.54424,47.98705c0.35058,8.19353 -4.3496,16.89214 -3.99902,25.08567c8.53607,8.63208 10.65338,54.10098 12.45761,65.36986c3.79253,23.68745 3.74259,49.91372 5.98928,70.27524c-24.29529,-248.6033 8.51865,45.25549 6.04245,81.21669c-2.4762,35.9611 -17.74469,50.8453 -14.43204,65.6584c3.205,14.3318 -1.32749,55.0418 -1.32749,55.0418c2.60338,12.9212 8.27245,18.0972 11.85076,35.7332c3.57832,17.6361 4.97845,37.2222 4.84696,61.7517c-0.08936,17.0112 -14.43452,85.3688 -18.99254,116.7307c-4.55802,31.362 -2.44913,39.354 -2.54284,40.8539c-0.12515,2.0032 36.14614,63.0658 36.00813,78.2827c-0.01325,1.4612 -0.077,2.8082 -0.18811,4.055c-1.04596,11.7371 -6.28926,14.5975 -13.11959,20.3397c-7.55589,6.3522 -20.90677,8.0331 -25.86029,6.8604c-1.42975,-0.3385 -9.95705,-4.9296 -14.30409,-15.2333c-2.04133,-4.8385 -11.28083,-7.9818 -12.13389,-14.2318c-2.09824,-15.3726 1.94987,-40.3013 -2.74107,-53.1833c-4.82697,-13.2555 -11.74683,-17.7962 -11.74683,-17.7962" id="path10220"/>
    <path stroke="#000000" fill="none" fill-rule="evenodd" stroke-width="10" stroke-miterlimit="4" d="m-1606.653128,203.339844l8.57143,-21.4286" id="path10222"/>
    <path stroke="#000000" fill="none" fill-rule="evenodd" stroke-width="10" stroke-miterlimit="4" d="m-1618.125028,241.326944l4.98206,-26.0175" id="path10224"/>
    <path stroke="#000000" fill="none" fill-rule="evenodd" stroke-width="10" stroke-miterlimit="4" d="m-1622.010268,275.482744l6.07143,-15.3572" id="path10226"/>
    <path stroke="#000000" fill="none" fill-rule="evenodd" stroke-width="10" stroke-miterlimit="4" d="m-1640.224548,274.411244c0,0 -6.86194,2.1002 -9.04279,-2.6581c-2.18085,-4.7584 -0.44578,-10.3391 -2.15864,-16.6184c-1.71287,-6.2793 -5.86091,-11.3346 -8.07681,-15.3306c-2.10801,-3.8014 -1.37477,-14.033 -1.37477,-14.033" id="path10228"/>
    <path stroke="#000000" fill="none" fill-rule="evenodd" stroke-width="10" stroke-miterlimit="4" d="m-1605.224548,501.554144c-0.11905,0 -0.2381,0 0,0z" id="path10230"/>
    <path stroke="#000000" fill="none" fill-rule="evenodd" stroke-width="10" stroke-miterlimit="4" d="m-1611.653128,501.911244l7.5,-0.7142" id="path10232"/>
    <path fill="#000000" fill-rule="evenodd" stroke-width="10" d="m-1602.996318,583.787444c-3.48953,2.8706 0.79303,7.3253 -1.07996,10.7335c-2.20494,2.872 -4.6815,9.0644 0.72156,9.9772c4.41522,-0.6427 7.81576,2.5839 12.05664,2.5912c5.11139,-0.1688 4.52744,-5.6802 1.99566,-8.5334c-1.49379,-5.155 -7.7314,-6.3947 -10.34888,-10.7903c-1.03577,-1.2459 -0.98333,-4.8432 -3.34502,-3.9782z" id="path10234"/>
    <path fill="#000000" fill-rule="evenodd" stroke-width="10" d="m-1594.788828,577.600344c-3.61963,0.164 -2.07956,4.442 0.00007,5.6812c3.73924,3.9231 6.08385,8.8585 9.06927,13.3295c1.07618,2.1612 3.34187,6.7991 6.03857,3.7061c1.84797,-2.043 1.49502,-5.2043 -0.68912,-6.8836c-3.10545,-3.2788 -5.5812,-7.123 -8.03731,-10.8922c-1.7232,-2.0635 -3.59619,-4.3845 -6.38148,-4.941z" id="path10236"/>
    <path fill="#000000" fill-rule="evenodd" stroke-width="10" d="m-1576.227268,596.414344c-2.08888,-0.9861 -4.35726,-2.4005 -4.89397,-4.8231c-0.55482,-1.9502 -1.11145,-4.1079 -2.84124,-5.3691c-1.55257,-1.305 -3.38438,-2.4408 -4.26466,-4.3507c-1.59839,-2.699 -1.91317,-6.0766 -1.05064,-9.0707c0.42933,-1.3611 2.06774,-2.0008 3.31862,-1.3437c1.68631,0.8276 2.24092,3.0419 1.70825,4.7387c-0.3276,2.0479 1.16425,3.6933 2.50057,5.0273c2.1454,1.9733 3.71024,4.4914 5.94662,6.3735c1.43538,0.6529 2.28896,-1.2787 2.03237,-2.4472c-0.28634,-1.4937 -0.91204,-2.9091 -1.4349,-4.3326c-0.91485,-1.9954 -2.62707,-3.4251 -4.29192,-4.777c-1.0782,-0.9488 -1.79263,-2.275 -1.92523,-3.7105c-0.18757,-1.2707 -0.60335,-3.5211 1.05101,-3.9157c1.5594,-0.477 3.53552,0.3225 3.90223,2.0165c0.46739,1.3222 1.18667,2.9706 2.80372,3.0576c0.70336,0.1101 6.21554,7.1028 6.90935,7.2694" id="path10238"/>
    <path stroke="#000000" fill="none" fill-rule="evenodd" stroke-width="10" stroke-miterlimit="4" d="m-1710.830098,54.720084c3.79115,11.41943 10.10768,24.85916 13.89884,36.27856c-11.37346,-34.25825 8.01328,17.0101 9.62885,38.1376c1.65398,21.6296 5.17786,96.5045 8.95527,109.0017c3.63729,12.0337 16.29855,34.945 21.03983,44.2654l9.61174,26.3701" id="path10240"/>
    <path stroke="#000000" fill="none" fill-rule="evenodd" stroke-width="10" stroke-miterlimit="4" d="m-1669.413848,258.770944c-4.92349,13.3252 -7.15088,41.2702 -5.17403,62.199c1.97685,20.9287 12.65766,36.9875 13.91378,50.4148c1.20926,12.9264 0.4376,21.9347 4.74301,40.9477c4.08755,18.0509 8.88646,32.7643 9.08178,45.398c0.11733,7.5889 -1.84862,44.4163 -2.32606,53.0372c-4.84394,12.485 -5.82256,22.881 -3.95414,28.8712c2.01145,6.4488 18.06085,15.1068 18.06085,15.1068" id="path10242"/>
    <path stroke="#000000" fill="none" fill-rule="evenodd" stroke-width="10" stroke-miterlimit="4" d="m-1647.190488,450.699844l-2.52538,-33.335" id="path10244"/>
    <path stroke="#000000" fill="none" fill-rule="evenodd" stroke-width="10" stroke-miterlimit="4" d="m-1665.878308,353.220144l9.09137,17.1726" id="path10246"/>
   </g>
   <g stroke="null" id="g10264">
    <path stroke="#000000" fill="none" fill-rule="evenodd" stroke-width="6.2" stroke-miterlimit="4" d="m176.295227,213.128512c-2.766717,5.929384 -6.117129,12.120478 -5.673511,19.358406l4.359293,24.864843c0.202576,4.245538 -2.513332,8.752787 -2.310762,12.998325c4.932409,4.472776 6.155855,28.032821 7.198395,33.871874c2.19144,12.273827 2.162577,25.863162 3.460789,36.413633c-14.038569,-128.815631 4.922337,23.449471 3.491513,42.083016c-1.430824,18.63354 -10.253426,26.345856 -8.339275,34.021415c1.851947,7.426107 -0.767064,28.520304 -0.767064,28.520304c1.504313,6.695225 4.780075,9.377172 6.847732,18.515431c2.067657,9.138254 2.876701,19.286926 2.800716,31.997062c-0.051629,8.814489 -8.340708,44.234498 -10.974472,60.484887c-2.633758,16.250451 -1.415177,20.391565 -1.469325,21.168749c-0.072316,1.037973 20.886347,32.678009 20.806601,40.562758c-0.007662,0.757132 -0.044493,1.45509 -0.108696,2.101128c-0.604388,6.081665 -3.634133,7.563802 -7.580901,10.539165c-4.366025,3.291439 -12.080572,4.16241 -14.942868,3.554767c-0.826153,-0.175396 -5.753489,-2.554309 -8.265341,-7.893247c-1.179543,-2.507104 -6.518409,-4.135828 -7.011333,-7.374312c-1.212427,-7.965426 1.126695,-20.882415 -1.583874,-27.557319c-2.789171,-6.868435 -6.787678,-9.221232 -6.787678,-9.221232" id="path6232"/>
    <path stroke="#000000" fill="none" fill-rule="evenodd" stroke-width="6.2" stroke-miterlimit="4" d="m173.452589,423.085104l4.952835,-11.103371" id="path8232"/>
    <path stroke="#000000" fill="none" fill-rule="evenodd" stroke-width="6.2" stroke-miterlimit="4" d="m166.823774,442.768416l2.878787,-13.481206" id="path8234"/>
    <path stroke="#000000" fill="none" fill-rule="evenodd" stroke-width="6.2" stroke-miterlimit="4" d="m164.578763,460.466459l3.508258,-7.957415" id="path8236"/>
    <path stroke="#000000" fill="none" fill-rule="evenodd" stroke-width="6.2" stroke-miterlimit="4" d="m154.053988,459.911289c0,0 -3.965033,1.088234 -5.225195,-1.377361c-1.260162,-2.4656 -0.257585,-5.35725 -1.247328,-8.61092c-0.989749,-3.253671 -3.386613,-5.873096 -4.667034,-7.943653c-1.218067,-1.969734 -0.794384,-7.271313 -0.794384,-7.271313" id="path8238"/>
    <path stroke="#000000" fill="none" fill-rule="evenodd" stroke-width="6.2" stroke-miterlimit="4" d="m174.278061,577.607035c-0.068785,0 -0.137576,0 0,0z" id="path8240"/>
    <path stroke="#000000" fill="none" fill-rule="evenodd" stroke-width="6.2" stroke-miterlimit="4" d="m170.563436,577.792069l4.33373,-0.370068" id="path8242"/>
    <path fill="#000000" fill-rule="evenodd" stroke-width="1px" d="m175.565606,620.216825c-2.016357,1.487423 0.458237,3.795658 -0.624034,5.561642c-1.274082,1.488148 -2.705114,4.696786 0.416939,5.16976c2.551249,-0.33302 4.516186,1.338867 6.966696,1.342649c2.953518,-0.087465 2.616088,-2.943237 1.153153,-4.421644c-0.863158,-2.671101 -4.46744,-3.313461 -5.9799,-5.591073c-0.5985,-0.645572 -0.568198,-2.50954 -1.932855,-2.061334z" id="path8244"/>
    <path fill="#000000" fill-rule="evenodd" stroke-width="1px" d="m180.308145,617.010934c-2.091539,0.084978 -1.201639,2.301655 0.00004,2.943756c2.160647,2.032783 3.515435,4.590097 5.240502,6.906779c0.62185,1.119842 1.931035,3.523004 3.489271,1.920343c1.067814,-1.058595 0.863863,-2.696646 -0.398195,-3.566788c-1.794424,-1.698934 -3.224988,-3.690835 -4.64421,-5.643874c-0.995712,-1.069218 -2.077983,-2.271861 -3.687409,-2.560216z" id="path9227"/>
    <path fill="#000000" fill-rule="evenodd" stroke-width="1px" d="m191.033584,626.759546c-1.207025,-0.510955 -2.517758,-1.243837 -2.827886,-2.499125c-0.320592,-1.01051 -0.64223,-2.128539 -1.641756,-2.782039c-0.897123,-0.676195 -1.955598,-1.264718 -2.464257,-2.254347c-0.923593,-1.398507 -1.105488,-3.148635 -0.607092,-4.70005c0.248086,-0.705264 1.194809,-1.036729 1.9176,-0.696248c0.974402,0.428827 1.294878,1.576183 0.987085,2.455392c-0.189297,1.061134 0.672739,1.913711 1.444906,2.604933c1.239678,1.02248 2.14389,2.327252 3.436139,3.302476c0.829401,0.338305 1.322625,-0.662568 1.174366,-1.268035c-0.165456,-0.773972 -0.527005,-1.507372 -0.829129,-2.244969c-0.528628,-1.033931 -1.518002,-1.774741 -2.480003,-2.475238c-0.623017,-0.491628 -1.035837,-1.178808 -1.112457,-1.922623c-0.108384,-0.658423 -0.348634,-1.824484 0.607306,-2.028949c0.901069,-0.247161 2.042932,0.167106 2.254828,1.044864c0.270072,0.685108 0.685694,1.539238 1.620075,1.584318c0.406423,0.057049 3.591529,3.680368 3.992434,3.766693" id="path9229"/>
    <path stroke="#000000" fill="none" fill-rule="evenodd" stroke-width="6.2" stroke-miterlimit="4" d="m113.255944,346.076676c2.190643,5.917062 5.840527,12.880957 8.031176,18.798013c-6.571934,-17.751175 4.630319,8.813903 5.563845,19.761247c0.95572,11.207552 2.991926,50.004512 5.174629,56.480054c2.101738,6.23533 9.417802,18.107009 12.157458,22.936459l5.553958,13.663851" id="path9241"/>
    <path stroke="#000000" fill="none" fill-rule="evenodd" stroke-width="6.2" stroke-miterlimit="4" d="m137.187522,451.807111c-2.844943,6.904556 -4.131998,21.384494 -2.989713,32.22887c1.142285,10.844381 7.313984,19.165387 8.039803,26.122795c0.698753,6.697925 0.252864,11.365632 2.740662,21.217378c2.361912,9.353207 5.134869,16.977063 5.247731,23.523308c0.067791,3.932244 -1.068189,23.014633 -1.344069,27.481616c-2.798977,6.469195 -3.364454,11.855959 -2.284823,14.959825c1.162277,3.341493 10.436113,7.8277 10.436113,7.8277" id="path9243"/>
    <path stroke="#000000" fill="none" fill-rule="evenodd" stroke-width="6.2" stroke-miterlimit="4" d="m150.028861,551.256526l-1.459242,-17.272791" id="path9247"/>
    <path stroke="#000000" fill="none" fill-rule="evenodd" stroke-width="6.2" stroke-miterlimit="4" d="m139.230466,500.746691l5.253272,8.898104" id="path9249"/>
   </g>
   <path fill="#ffffff" fill-rule="evenodd" stroke-width="6.2" stroke-miterlimit="4" stroke-dashoffset="0" id="path6131" d="m170.312334,342.727075c0,6.145481 10.831112,-7.994541 12.409329,-3.08743c0.981896,3.052968 0.87977,10.326104 -2.270718,17.322757c-3.104667,6.894882 -9.253946,13.506145 -8.904775,17.579157c0.393757,4.593149 14.158509,-0.278551 16.423004,-0.278551c9.585471,0 17.073139,-13.55024 17.073139,-31.535933c0,-17.985688 -6.612122,-24.993206 -16.197592,-24.993206c-9.585476,0 -16.781294,10.671446 -18.532387,24.993206z"/>
   <path stroke="#000000" fill="none" fill-rule="evenodd" stroke-width="6.2" stroke-miterlimit="4" d="m167.247925,122.838907c0,0 10.580067,-3.743806 21.484385,0.978193c6.316226,2.735177 13.323024,11.614901 16.935812,17.134371c9.849886,15.048264 0.979359,42.080503 0.979359,42.080503" id="path4164"/>
   <path stroke="#000000" fill="none" fill-rule="evenodd" stroke-width="6.2" stroke-miterlimit="4" d="m209.565964,170.469943c0,0 4.780971,12.098135 6.2576,24.322535c0.938819,7.772096 -1.13475,18.952844 0.072165,26.172932c3.105221,18.576258 6.74396,19.23054 7.258524,31.399129c0.314571,7.279137 -4.668964,23.560615 -8.73599,41.87454c-2.585625,11.643146 -4.223225,23.150292 -6.400607,29.800645c-2.398771,7.326538 0.299201,14.434719 -0.635458,20.713465c-1.248201,8.385092 -5.710729,15.495947 -9.101555,21.64721c-3.793221,6.881233 -9.672925,9.976804 -15.85005,10.372127c-3.479477,0.222683 -6.868124,-0.079247 -9.637545,-0.337605" id="path4166"/>
   <path stroke="#000000" fill="none" fill-rule="evenodd" stroke-width="6.2" stroke-miterlimit="4" d="m173.633185,174.508964c0,0 2.704583,15.124604 3.237568,23.170806c0.252154,3.806591 -0.573896,8.956402 -0.474832,11.780157c0.110331,3.144961 1.741374,6.462153 2.323105,8.373931c0.955067,3.138712 7.250526,15.502657 8.392661,21.18875c1.134108,5.646128 -0.539503,12.983785 -0.321938,18.304997c0.239534,5.858515 3.259086,14.622608 2.885155,21.166609c-0.373469,6.53584 -0.083057,31.413197 -2.135431,35.415196c-2.163756,4.219195 -8.067261,5.830592 -10.74364,8.857377c-2.931271,3.315046 -4.749352,9.828347 -8.40747,14.657133c-3.658113,4.828786 -9.126818,5.775838 -9.258384,8.617625c-0.131566,2.841787 2.576287,4.300053 8.732119,2.749514c6.155838,-1.550539 12.651099,-9.380213 14.140128,-7.904838c1.489029,1.47537 -1.508381,15.028356 -4.428979,19.86904c-2.920605,4.840678 -5.899177,8.93322 -7.167192,12.787709c-1.268009,3.85449 2.095145,2.630239 2.095145,2.630239" id="path4169"/>
   <path stroke="#000000" fill="none" fill-rule="evenodd" stroke-width="6.2" stroke-miterlimit="4" d="m186.801777,238.51428c0,0 4.229558,1.468588 6.272496,4.674526c2.042943,3.205933 1.899266,8.149216 1.899266,8.149216" id="path4172"/>
   <path stroke="#000000" fill="none" fill-rule="evenodd" stroke-width="6.2" stroke-miterlimit="4" d="m176.587078,375.649793c0,0 4.2684,-4.407208 7.843548,-11.015362c3.575142,-6.608149 6.457032,-15.417249 6.457032,-15.417249" id="path4174"/>
   <path stroke="#000000" fill="none" fill-rule="evenodd" stroke-width="6.2" stroke-miterlimit="4" d="m182.715896,375.649793c0,0 4.211709,-2.88696 7.422044,-8.709987c3.210335,-5.823021 5.419294,-14.582114 5.419294,-14.582114" id="path4176"/>
   <path stroke="#000000" fill="none" fill-rule="evenodd" stroke-width="6.2" stroke-miterlimit="4" d="m191.763205,373.032704l7.29621,-19.104757" id="path4178"/>
   <path fill="#ffffff" fill-rule="evenodd" stroke-width="6.2" stroke-miterlimit="4" stroke-dashoffset="0" id="path5159" d="m63.057999,343.067038c0,6.145481 -10.831112,-7.994541 -12.409329,-3.08743c-0.981896,3.052968 -0.87977,10.326104 2.270718,17.322757c3.104667,6.894882 9.253946,13.506145 8.904775,17.579157c-0.393757,4.593149 -14.158509,-0.278551 -16.423004,-0.278551c-9.585471,0 -17.073139,-13.55024 -17.073139,-31.535933c0,-17.985688 6.612122,-24.993206 16.197592,-24.993206c9.585476,0 16.781294,10.671446 18.532387,24.993206z"/>
   <g stroke="null" id="g5164">
    <path stroke="#000000" fill="none" fill-rule="evenodd" stroke-width="6" stroke-miterlimit="4" d="m64.801045,122.735426c0,0 -10.580067,-3.743806 -21.484385,0.978193c-6.316226,2.735177 -13.323024,11.614901 -16.935812,17.134371c-9.849886,15.048264 -0.979359,42.080503 -0.979359,42.080503" id="path5150"/>
    <path stroke="#000000" fill="none" fill-rule="evenodd" stroke-width="6" stroke-miterlimit="4" d="m22.774856,169.057918c0,0 -5.072821,13.406679 -6.54945,25.631079c-0.938819,7.772096 1.13475,18.952844 -0.072165,26.172932c-3.105221,18.576258 -6.74396,19.23054 -7.258524,31.399129c-0.314571,7.279137 4.668964,23.560615 8.73599,41.87454c2.585625,11.643146 4.223225,23.150292 6.400607,29.800645c2.398771,7.326538 -0.299201,14.434719 0.635458,20.713465c1.248201,8.385092 5.710729,15.495947 9.101555,21.64721c3.793221,6.881233 9.672925,9.976804 15.85005,10.372127c3.479477,0.222683 6.868124,-0.079247 9.637545,-0.337605" id="path5152"/>
    <path stroke="#000000" fill="none" fill-rule="evenodd" stroke-width="6" stroke-miterlimit="4" d="m58.312602,175.423294c0,0 -2.601399,14.106793 -3.134385,22.152994c-0.252154,3.806591 0.573896,8.956402 0.474832,11.780157c-0.110325,3.144961 -1.741374,6.462153 -2.323105,8.373931c-0.955067,3.138712 -7.250526,15.502657 -8.392661,21.18875c-1.134108,5.646128 0.539503,12.983785 0.321938,18.304997c-0.239534,5.858515 -3.259086,14.622608 -2.885155,21.166609c0.373469,6.53584 0.083057,31.413197 2.135431,35.415196c2.163756,4.219195 8.067261,5.830592 10.74364,8.857377c2.931271,3.315046 4.749352,9.828347 8.407465,14.657133c3.658119,4.828786 9.126823,5.775838 9.25839,8.617625c0.131566,2.841787 -2.576287,4.300053 -8.732119,2.749514c-6.155838,-1.550539 -12.651099,-9.380213 -14.140128,-7.904838c-1.489029,1.47537 1.508375,15.028356 4.428979,19.86904c2.920605,4.840678 5.899177,8.93322 7.167192,12.787709c1.268009,3.85449 -2.095145,2.630239 -2.095145,2.630239" id="path5154"/>
    <path stroke="#000000" fill="none" fill-rule="evenodd" stroke-width="6" stroke-miterlimit="4" d="m45.247192,238.410799c0,0 -4.229558,1.468588 -6.272496,4.674526c-2.042943,3.205933 -1.899266,8.149216 -1.899266,8.149216" id="path5156"/>
    <path stroke="#000000" fill="none" fill-rule="evenodd" stroke-width="6" stroke-miterlimit="4" d="m55.461892,375.546311c0,0 -4.2684,-4.407208 -7.843548,-11.015362c-3.575142,-6.608149 -6.457032,-15.417249 -6.457032,-15.417249" id="path5158"/>
    <path stroke="#000000" fill="none" fill-rule="evenodd" stroke-width="6" stroke-miterlimit="4" d="m49.333073,375.546311c0,0 -4.211709,-2.88696 -7.422044,-8.709987c-3.210335,-5.823021 -5.419294,-14.582114 -5.419294,-14.582114" id="path5160"/>
    <path stroke="#000000" fill="none" fill-rule="evenodd" stroke-width="6" stroke-miterlimit="4" d="m40.285765,372.929223l-7.29621,-19.104757" id="path5162"/>
   </g>
   <g stroke="null" id="g4178">
    <path stroke="#000000" fill="none" fill-rule="evenodd" stroke-width="6.2" stroke-miterlimit="4" d="m115.590732,178.059503c3.241156,1.792255 5.713474,4.040301 9.641052,5.174319c4.473547,1.291663 10.321893,1.358142 16.131113,1.547834c11.347681,0.37054 24.509392,-0.208641 27.750767,-2.850166c3.100235,-2.526504 8.133677,-14.375369 9.729963,-19.81426c1.596286,-5.438891 1.246444,-7.403951 1.53748,-10.292123" id="path2215"/>
    <path fill="#000000" fill-rule="evenodd" stroke-width="6.2" stroke-miterlimit="4" stroke-dashoffset="0" d="m164.372397,176.867829c0,1.991945 -2.111888,3.608596 -4.714038,3.608596c-2.602149,0 -4.714038,-1.616651 -4.714038,-3.608596c0,-1.991945 2.111888,-3.608596 4.714038,-3.608596c1.234875,0 1.533868,1.104305 2.374612,1.699799c0.930886,0.65934 2.339425,0.862148 2.339425,1.908797z" id="path3206"/>
   </g>
   <g stroke="null" transform="matrix(-0.5778306404663153,0,0,0.5181573647551005,-597.9848514472992,514.6032476506072) " id="g4182">
    <path stroke="#000000" fill="none" fill-rule="evenodd" stroke-width="11.2" stroke-miterlimit="4" d="m-1235.407218,-648.962986c5.60918,3.4589 9.8878,7.79744 16.68491,9.986c7.74197,2.4928 17.86318,2.6211 27.91668,2.98719c19.63842,0.71511 42.41622,-0.40266 48.02578,-5.50058c5.3653,-4.87594 14.07623,-27.74325 16.83878,-38.23985c2.76255,-10.4966 2.15711,-14.289 2.66078,-19.86293" id="path4184"/>
    <path fill="#000000" fill-rule="evenodd" stroke-width="11.2" stroke-miterlimit="4" stroke-dashoffset="0" d="m-1150.985138,-651.262815c0,3.844286 -3.654857,6.964286 -8.158165,6.964286c-4.503308,0 -8.158165,-3.12 -8.158165,-6.964286c0,-3.844286 3.654857,-6.964286 8.158165,-6.964286c2.137089,0 2.654529,2.131216 4.10953,3.280468c1.611001,1.27247 4.048635,1.663874 4.048635,3.683817z" id="path4186"/>
   </g>
   <path fill="#ffffff" fill-rule="evenodd" stroke-width="6.2" stroke-miterlimit="4" stroke-dashoffset="0" d="m125.951351,341.758487a10.50655,11.122631 0 1 1 -21.013094,0a10.50655,11.122631 0 1 1 21.013094,0z" id="path7197"/>
   <path stroke="#000000" fill="none" fill-rule="evenodd" stroke-width="6.2" stroke-miterlimit="4" id="path6136" d="m110.303952,326.670829c1.954553,4.094112 -0.793743,8.558825 -0.79929,13.138906c-0.004155,3.431736 3.005523,7.122037 7.186335,9.122036"/>
   <path stroke="#000000" fill="none" fill-rule="evenodd" stroke-width="6.2" stroke-miterlimit="4" id="path6187" d="m121.048187,326.763357c-1.954553,4.094112 0.793743,8.558825 0.79929,13.138906c0.004155,3.431736 -2.713672,7.122037 -6.894485,9.122036"/>
   <path stroke="#000000" fill="none" fill-rule="evenodd" stroke-width="6.2" stroke-miterlimit="4" id="path6189" d="m101.430132,324.635201c0.716868,2.822813 1.872853,5.973924 1.87532,9.992784c0.003103,5.06204 -2.129485,9.771225 -0.091603,13.357454c1.925083,3.387728 7.174449,5.77091 13.281154,5.518531"/>
   <path stroke="#000000" fill="none" fill-rule="evenodd" stroke-width="6.2" stroke-miterlimit="4" id="path6226" d="m129.805742,324.626051c-0.716868,2.822813 -1.872853,5.973924 -1.87532,9.992784c-0.003103,5.06204 2.129485,9.771225 0.091603,13.357454c-1.925083,3.387728 -7.174449,5.77091 -13.281154,5.518531"/>
   <path stroke="#000000" fill="none" fill-rule="evenodd" stroke-width="6.2" stroke-miterlimit="4" id="path7200" d="m131.642405,320.167493c8.38052,-3.457104 16.466862,-9.638369 21.319969,-19.27206c1.079133,-1.966267 1.733775,-4.24374 2.666405,-6.301053c2.294802,-4.328049 4.685918,-8.6045 7.533265,-12.374707"/>
   <path stroke="#000000" fill="none" fill-rule="evenodd" stroke-width="6.2" stroke-miterlimit="4" id="path8182" d="m99.247209,320.298354c-8.38052,-3.457104 -16.466862,-9.638369 -21.319969,-19.27206c-1.079133,-1.966267 -1.733775,-4.24374 -2.666405,-6.301053c-2.294802,-4.328049 -4.685918,-8.6045 -7.533265,-12.374707"/>
   <path fill="#000000" fill-rule="evenodd" stroke-width="6.2" stroke-miterlimit="4" stroke-dashoffset="0" d="m117.341817,277.639783a2.188863,1.962816 0 1 1 -4.377732,0a2.188863,1.962816 0 1 1 4.377732,0z" id="path8184"/>
   <path stroke="#000000" fill="none" fill-rule="evenodd" stroke-width="6.2" stroke-miterlimit="4" id="path9155" d="m117.925521,198.996373c5.781843,1.952085 7.39499,4.480056 11.101773,8.72677c2.884727,4.545691 7.025461,12.410822 8.754579,17.401165c2.225168,5.083181 3.755368,9.129653 11.371441,13.389984"/>
   <path stroke="#000000" fill="none" fill-rule="evenodd" stroke-width="6.2" stroke-miterlimit="4" id="path9162" d="m113.693714,198.603734c-5.781843,1.952085 -7.39499,4.480056 -11.101773,8.72677c-2.884727,4.545691 -7.025461,12.410822 -8.754579,17.401165c-2.225168,5.083181 -3.755368,9.129653 -11.371441,13.389984"/>
   <g stroke="null" id="g11154">
    <path stroke="#000000" fill="none" fill-rule="evenodd" stroke-width="6.2" stroke-miterlimit="4" d="m105.478898,119.677905c-7.456038,1.093053 -12.93315,1.339167 -17.315146,1.845449c-4.334741,0.50082 -15.580296,1.995652 -24.249951,-1.607262" id="path11146"/>
    <path stroke="#000000" fill="none" fill-rule="evenodd" stroke-width="6.2" stroke-miterlimit="4" d="m66.518592,125.825889c0.730008,0.944435 1.446114,1.987377 1.274631,3.093363c-0.271424,1.03904 -1.408624,1.822774 -2.570711,2.42422c-1.304308,0.675071 -2.839541,1.06828 -4.288463,1.556187" id="path11148"/>
   </g>
   <path stroke="#000000" fill="none" fill-rule="evenodd" stroke-width="6.2" stroke-miterlimit="4" id="path11159" d="m61.109358,121.345212c2.064756,-2.312826 5.128235,-4.455853 8.8864,-7.070692c3.758164,-2.61484 7.873763,-5.582726 14.14675,-7.056625c2.732521,-0.82729 5.370687,-2.570009 6.119001,-5.185978c1.507104,-3.725914 1.335228,-13.240713 1.260948,-17.129189"/>
   <g stroke="null" transform="matrix(-0.5778306404663153,0,0,0.5181573647551005,-598.0087909707333,513.4399797033158) " id="g11203">
    <path stroke="#000000" fill="none" fill-rule="evenodd" stroke-width="6.2" stroke-miterlimit="4" d="m-1252.906868,-759.927566c-12.9035,2.1095 -22.38225,2.58448 -29.96578,3.56156c-7.50175,0.96654 -29.26183,2.4724 -44.26563,-4.48092" id="path11205"/>
    <path stroke="#000000" fill="none" fill-rule="evenodd" stroke-width="6.2" stroke-miterlimit="4" d="m-1320.331998,-748.062476c1.26336,1.82268 2.50266,3.83547 2.20589,5.96993c-0.46973,2.00526 -2.43778,3.5178 -4.4489,4.67854c-2.25725,1.30283 -4.91414,2.06169 -7.42166,3.00331" id="path11207"/>
   </g>
   <path stroke="#000000" fill="none" fill-rule="evenodd" stroke-width="6.2" stroke-miterlimit="4" id="path11211" d="m118.482544,120.868828c-0.16675,1.270315 -2.45318,3.330814 -3.78308,4.821511"/>
   <path stroke="#000000" fill="none" fill-rule="evenodd" stroke-width="6.2" stroke-miterlimit="4" id="path11213" d="m113.170211,120.868636c0.16675,1.270315 1.889726,2.99397 3.219626,4.484668"/>
   <path stroke="#000000" fill="none" fill-rule="evenodd" stroke-width="6.2" stroke-miterlimit="4" id="path11215" d="m171.112358,121.345269c-2.064756,-2.312826 -3.136112,-5.170413 -6.894276,-7.785252c-3.758164,-2.61484 -8.847148,-6.501491 -12.951479,-8.604832c-4.048351,-2.074655 -9.222125,-7.33373 -9.970439,-9.949699c-1.507104,-3.725914 -2.132079,-9.072459 -2.057799,-12.960934"/>
   <path stroke="#000000" fill="none" fill-rule="evenodd" stroke-width="6.2" stroke-miterlimit="4" id="path12725" d="m144.512976,55.367654c-0.067051,8.25034 -2.861672,17.8522 -5.336844,25.817512c-3.788749,5.971629 -10.552106,11.394358 -16.311807,15.392719c-5.513943,3.827758 -10.626155,4.601191 -17.066453,3.102783c-4.881658,-1.135775 -8.042865,-4.286322 -10.265762,-8.179264c-4.703044,-6.144989 -7.452946,-14.394375 -10.27662,-21.329932c-2.488254,-6.111713 -6.755406,-21.210419 -7.230505,-24.363024c-0.45748,-3.035692 4.512956,-20.494637 13.068778,-22.926209c8.314116,-2.36288 9.41731,-3.960593 15.13521,-4.149808c3.287244,-0.108782 1.40392,1.100649 4.695307,1.400559c2.433707,0.221761 7.711439,1.014993 9.618586,0.802849c1.907153,-0.212144 10.718862,-1.955552 11.863626,-0.910755c0.841252,0.76779 7.311014,2.548749 8.847656,6.550753c0.624987,1.627703 1.322319,5.42831 3.550833,7.738328c3.250684,3.369577 -2.080468,18.190816 -0.292007,21.291677"/>
   <path stroke="#000000" fill="none" fill-rule="evenodd" stroke-width="6.2" stroke-miterlimit="4" id="path13911" d="m140.528724,92.524682c-0.590433,4.971461 -0.615112,10.165698 1.460895,14.886635"/>
   <path stroke="#000000" fill="none" fill-rule="evenodd" stroke-width="4.8" stroke-miterlimit="4" id="path14901" d="m106.871707,58.119842c0.031301,0.028069 0.062608,0.056137 0.093909,0.084211c0.599563,0.53764 0.607479,1.713168 0.751278,2.357922c0.08434,0.378141 0.281727,0.629338 0.281727,1.178958c0,0.477197 0,0.954399 0,1.431596c0,0.449128 0,0.898257 0,1.347385c0,0.449128 0,0.898252 0,1.34738c0,0.42106 0,0.84212 0,1.263174c0,0.430288 -0.005663,0.862442 -0.093909,1.178963c-0.113555,0.407324 -0.093909,0.78305 -0.093909,1.263169c0,0.406116 -0.184871,0.828902 -0.281727,1.263174c-0.047683,0.213787 -0.057754,0.375566 -0.093909,0.505266"/>
   <path stroke="#000000" fill="none" fill-rule="evenodd" stroke-width="4.8" stroke-miterlimit="4" id="path14903" d="m101.800579,71.341041c-1.036911,1.513589 -2.53154,4.198671 0.130266,5.128276c2.239071,0.559372 4.64462,0.127166 6.889082,0.786475c2.687912,0.615794 4.772979,-1.297181 7.560527,-0.918206c2.787547,0.37897 3.897289,-3.552347 2.229958,-5.4176"/>
   <path stroke="#000000" fill="none" fill-rule="evenodd" stroke-width="4.8" stroke-miterlimit="4" id="path14905" d="m117.483498,54.582956c-0.00282,-0.005052 1.438532,-0.168422 1.878192,-0.168422c0.628483,0 1.398229,-0.060821 1.878192,-0.168422c0.747482,-0.167572 1.53904,-0.008182 2.253834,-0.168427c0.757322,-0.169774 1.401927,-0.252633 2.159919,-0.252633c0.500852,0 1.001704,0 1.502556,0c0.526149,0 0.868734,0.089491 1.220829,0.168422c0.482396,0.108145 0.758489,0.06478 1.220823,0.168427c0.413738,0.09275 0.685469,0.30734 0.939096,0.421055"/>
   <path stroke="#000000" fill="none" fill-rule="evenodd" stroke-width="4.8" stroke-miterlimit="4" id="path14907" d="m105.46306,56.351396c0.120091,0.026923 -0.72898,-0.890277 -1.033005,-1.094747c-0.295208,-0.198542 -0.478681,-0.55147 -0.939096,-0.757904c-0.484003,-0.217009 -0.959673,-0.383566 -1.502556,-0.505271c-0.381022,-0.085418 -0.820976,-0.084211 -1.314732,-0.084211c-0.469551,0 -0.939096,0 -1.408647,0c-0.719971,0 -1.439948,0 -2.159919,0c-0.532159,0 -1.064312,0 -1.596465,0c-0.469551,0 -0.939096,0 -1.408647,0c-0.469545,0 -0.939096,0 -1.408641,0c-0.312098,0 -0.386309,-0.023441 -0.657369,-0.084211"/>
   <path fill="#000000" fill-rule="evenodd" stroke-width="1px" id="path14909" d="m98.325927,83.55171c2.891973,-0.604633 5.844393,-2.450392 8.308118,-2.342823c2.463725,0.107564 3.960994,1.041543 6.135816,0.309014c2.174827,-0.732529 4.235574,0.807647 6.561134,0.364145c3.354168,0.262255 1.55849,4.211179 -1.188915,3.945903c-2.577974,-0.242565 -5.440541,0.004384 -7.681409,0.481322c-2.550313,0.542796 -5.299233,-0.997132 -7.879206,0.107865c-1.803259,0.64694 -6.659671,-0.778153 -4.255538,-2.865426z"/>
   <path stroke="#000000" fill="none" fill-rule="evenodd" stroke-width="4.8" stroke-miterlimit="4" id="path14946" d="m107.059525,89.025457c0.241169,0.066257 0.917855,0.570434 1.126914,0.757904c0.141736,0.127099 0.313034,0.224564 0.469551,0.336849c0.312202,0.223963 0.670578,0.234544 1.126914,0.336844c0.405036,0.090802 1.047792,-0.024364 1.314738,-0.084211c0.461889,-0.103549 0.796031,-0.07319 1.220823,-0.168422c0.374036,-0.083853 0.664193,-0.297801 0.939096,-0.42106c0.055998,-0.025105 0.125216,0 0.187818,0c0.105396,0 0.16207,-0.145328 0.187824,-0.168422"/>
   <path stroke="#000000" fill="#000000" fill-rule="evenodd" stroke-width="1px" id="path16899" d="m117.26888,61.115175c0.01177,-1.364816 1.219136,-2.4091 2.428917,-3.080839c0.664442,-0.416365 1.434129,-0.69588 2.248634,-0.737478c1.497009,-0.143317 2.997115,0.066946 4.494638,0.080071c1.667036,0.19863 3.297887,0.620965 4.868541,1.146656c0.888513,0.489731 0.956021,1.657798 0.378889,2.373529c-0.399957,0.547547 -1.079249,0.860685 -1.73229,1.103825c-1.241856,0.332667 -2.534619,-0.442107 -3.752889,0.033126c-0.490364,0.204646 -0.839409,0.636437 -1.409121,0.699518c-1.147647,0.234259 -2.261808,-0.225927 -3.313818,-0.57375c-1.225527,-0.301433 -2.379975,0.673879 -3.607437,0.309589c-0.599008,-0.165733 -0.983612,-0.862297 -0.604064,-1.354246z"/>
   <path stroke="#000000" fill="#000000" fill-rule="evenodd" stroke-width="1px" id="path16901" d="m105.784496,59.625472c-2.639016,-3.583835 -7.953359,-1.225556 -11.740565,-2.517763c-3.841308,-0.72142 -6.178674,3.990884 -1.381437,4.46176c3.41131,2.124523 7.131644,0.864369 10.744114,0.658904c2.479408,0.502214 3.931329,-0.397411 2.377889,-2.602901z"/>
   <path stroke="#000000" fill="#ffffff" fill-rule="evenodd" stroke-width="6.2" stroke-miterlimit="4" id="path18877" d="m143.625729,73.953259c1.432968,-3.050206 2.117212,-6.730419 5.406819,-8.70395c1.751509,-0.900024 3.7503,-2.331371 3.425507,-4.366828c0.183895,-2.632322 -0.125961,-5.311165 -1.289082,-7.752945c-0.669313,-1.693457 -0.945498,-3.457871 -1.612026,-5.138618c-0.262878,-0.816512 -0.082468,-7.718265 -0.152461,-5.544118c-0.182849,3.455954 -0.383836,11.340563 -2.177202,14.509401c-1.255331,2.960326 -3.761013,5.47013 -4.178143,8.699541c-0.417587,3.028578 -0.868768,6.057664 -1.793621,9.002761c-0.341463,1.613993 -0.624785,1.571934 0.081734,3.147293l-3.523733,5.150059c-7.258339,9.501612 2.385112,-2.663966 5.812208,-9.002596z"/>
   <path stroke="#000000" fill="#ffffff" fill-rule="evenodd" stroke-width="6.2" stroke-miterlimit="4" id="path17898" d="m86.172404,73.84699c-3.842175,-3.859221 -6.418809,-8.812877 -6.971249,-13.741279c-2.459057,-5.29633 -6.597572,-9.01328 -6.513619,-15.232153c0.370499,-4.57605 3.638634,-8.077529 3.024429,-12.838323c-0.576334,-3.565456 0.513229,-7.378006 4.621201,-8.784959c3.802755,-1.3488 6.947547,-5.329725 8.834291,-8.390875c4.201141,-5.364105 11.855334,-1.790633 15.203267,-4.888354c3.14081,-2.807713 7.884522,-5.363882 12.708137,-5.162283c7.586136,-0.937357 12.060978,0.061552 15.824609,6.6958c1.497506,1.908317 1.474254,11.671474 1.705346,11.54322c0.201016,-2.588916 0.412207,-6.836288 2.580944,-8.206519c1.810523,-1.143905 5.466237,1.3625 7.579376,3.953385c2.113138,2.590885 2.695713,7.19917 4.491177,11.18052c2.347911,2.196402 5.031651,2.987307 6.606742,5.843976c1.969715,3.572384 0.801682,8.609563 -0.645027,12.536382c-1.413258,3.801974 -3.706304,7.894822 -8.242211,8.242262c-4.438225,-0.315547 -5.783882,-4.941532 -9.534154,-6.627046c-4.448094,-3.151682 -9.034319,-7.32816 -8.762692,-12.822814c-0.289753,-2.298691 2.497147,-8.321721 1.683746,-8.991766c-2.700873,4.724849 -12.840136,9.716938 -18.953556,8.310617c-0.964006,-4.155866 -3.60664,-4.219801 -7.091611,-2.511374c-4.138169,1.977382 -5.837135,5.795885 -8.82493,8.764792c-3.891793,3.348633 -9.475995,1.380874 -13.164611,-0.49611c-4.184979,1.043191 -4.32412,6.317841 -3.113456,9.375648c3.054101,4.492502 5.986793,9.205314 7.123017,14.446766c0.613229,2.551023 0.995995,5.32386 -0.169166,7.800486z"/>
  </g>
 </g>
</svg>